<svg width="27" height="24" viewBox="0 0 27 24" fill="none" xmlns="http://www.w3.org/2000/svg">
<path d="M11.5688 23.0001C12.2438 23.0001 12.791 22.4529 12.791 21.7779C12.791 21.1029 12.2438 20.5557 11.5688 20.5557C10.8938 20.5557 10.3466 21.1029 10.3466 21.7779C10.3466 22.4529 10.8938 23.0001 11.5688 23.0001Z" fill="white" stroke="white" stroke-width="1.5" stroke-linecap="round" stroke-linejoin="round"/>
<path d="M20.1243 23.0001C20.7993 23.0001 21.3465 22.4529 21.3465 21.7779C21.3465 21.1029 20.7993 20.5557 20.1243 20.5557C19.4493 20.5557 18.9021 21.1029 18.9021 21.7779C18.9021 22.4529 19.4493 23.0001 20.1243 23.0001Z" fill="white" stroke="white" stroke-width="1.5" stroke-linecap="round" stroke-linejoin="round"/>
<path d="M1.79102 1H5.57291L8.40933 17.0731H23.5369" stroke="white" stroke-width="2" stroke-linecap="round" stroke-linejoin="round"/>
<path d="M7.90209 13.1837L23.1493 13.2907C23.2586 13.2908 23.3646 13.2529 23.4492 13.1837C23.5337 13.1144 23.5917 13.0179 23.6132 12.9107L25.315 4.40145C25.3287 4.33283 25.3271 4.26203 25.3101 4.19414C25.2932 4.12625 25.2613 4.06297 25.217 4.00886C25.1726 3.95476 25.1168 3.91118 25.0535 3.88128C24.9902 3.85138 24.9211 3.83589 24.8511 3.83594L6.35826 3.83594" stroke="white" stroke-width="2" stroke-linecap="round" stroke-linejoin="round"/>
</svg>
