<svg width="402" height="144" viewBox="0 0 402 144" fill="none" xmlns="http://www.w3.org/2000/svg">
<rect y="2" width="400" height="140" rx="70" fill="#002738"/>
<circle cx="123" cy="52" r="14" fill="white"/>
<circle cx="127" cy="48" r="14" fill="#002738"/>
<path d="M80.5 24L81.327 26.0225L82.6651 27.75L80.5 27.4549L78.3349 27.75L79.673 26.0225L80.5 24Z" fill="#C4C4C4"/>
<path d="M124.5 16L125.327 18.0225L126.665 19.75L124.5 19.4549L122.335 19.75L123.673 18.0225L124.5 16Z" fill="#C4C4C4"/>
<path d="M163 13L163.992 15.4271L165.598 17.5L163 17.1459L160.402 17.5L162.008 15.4271L163 13Z" fill="#C4C4C4"/>
<path d="M176 45L176.992 47.4271L178.598 49.5L176 49.1459L173.402 49.5L175.008 47.4271L176 45Z" fill="#C4C4C4"/>
<path d="M72.5 50L73.6578 52.8316L75.5311 55.25L72.5 54.8369L69.4689 55.25L71.3422 52.8316L72.5 50Z" fill="#C4C4C4"/>
<mask id="mask0_4_232" style="mask-type:alpha" maskUnits="userSpaceOnUse" x="0" y="2" width="400" height="140">
<rect y="2" width="400" height="140" rx="70" fill="#002738"/>
</mask>
<g mask="url(#mask0_4_232)">
<path d="M118 82.9672C82.8 65.3672 19.3333 82.9672 -8 93.9672V152.467C91.5 150.8 288.2 145.567 279 137.967C267.5 128.467 233.5 118.967 221.5 116.967C211.9 115.367 189.833 123.3 180 127.467C174 119.967 153.2 100.567 118 82.9672Z" fill="#004D56"/>
<path d="M12.5001 35.9672C18.9001 59.1672 15.1667 108.301 12.5001 129.967C20 134.634 34.1 142.367 30.5 135.967C26 127.967 24 95.9672 26 71.4672C27.6 51.8672 41.3333 39.6339 48 35.9672V28.4672C40.5 35.3005 26.5 46.9672 30.5 38.9672C34.5 30.9672 55.5 1.30053 65.5 -12.5328C60.1667 -15.3661 47.1 -16.0328 37.5 3.9672C25.5 28.9672 23.0001 23.4672 18.0001 -0.0328159C13.0001 -23.5328 4.50007 6.96719 12.5001 35.9672Z" fill="black"/>
<path d="M224 103.967L230 150.967H216.5L224 103.967Z" fill="#C16337" stroke="#D48B68"/>
<path d="M89.9444 68.4672L101.5 159.467H75.5L89.9444 68.4672Z" fill="#C16337" stroke="#D48B68"/>
<path d="M58 138.003C58.7379 138.7 59.4993 139.342 60.2812 139.926V156.436C60.2812 157.323 60.0409 158.173 59.6131 158.8C59.1853 159.427 58.605 159.78 58 159.78C57.395 159.78 56.8147 159.427 56.3869 158.8C55.9591 158.173 55.7188 157.323 55.7188 156.436V139.926C56.5007 139.342 57.2621 138.7 58 138.003Z" fill="#A1A121"/>
<path d="M38.0105 85.632C39.6607 79.8567 42.4386 74.9251 45.9951 71.4567C49.5516 67.9883 53.7281 66.1378 57.9999 66.1378C62.2717 66.1378 66.4482 67.9883 70.0047 71.4567C73.5613 74.9251 76.3391 79.8567 77.9894 85.632C81.5402 88.0439 84.5493 91.8873 86.6651 96.713C88.7808 101.539 89.9158 107.147 89.9374 112.884C89.9659 129.101 80.9835 142.643 69.948 143.061C66.5994 143.189 63.2804 142.113 60.2812 139.926V125.046L72.714 115.977C73.2585 115.578 73.6726 114.878 73.8651 114.031C73.9604 113.612 73.9985 113.169 73.9771 112.729C73.9558 112.288 73.8754 111.858 73.7406 111.463C73.6057 111.067 73.4192 110.715 73.1914 110.425C72.9637 110.136 72.6993 109.915 72.4133 109.775C71.8358 109.493 71.2054 109.559 70.6609 109.958L60.2812 117.607V96.2485C60.2812 95.3616 60.0408 94.5111 59.613 93.8841C59.1852 93.257 58.605 92.9047 57.9999 92.9047C57.3949 92.9047 56.8147 93.257 56.3868 93.8841C55.959 94.5111 55.7187 95.3616 55.7187 96.2485V107.575L45.339 99.9266C44.7945 99.5275 44.1641 99.4618 43.5865 99.744C43.009 100.026 42.5316 100.633 42.2593 101.431C41.987 102.229 41.9422 103.153 42.1348 104C42.3273 104.846 42.7413 105.546 43.2859 105.945L55.7187 115.015V139.926C52.8826 141.988 49.7596 143.061 46.5937 143.061H46.0519C35.0163 142.643 26.0339 129.101 26.0624 112.884C26.084 107.147 27.219 101.539 29.3348 96.713C31.4505 91.8873 34.4597 88.0439 38.0105 85.632Z" fill="#A1A121"/>
<path d="M134.5 146.008C129.837 118.192 119.052 71.5651 113.213 107.586C108.827 134.643 107.141 143.973 106.659 146.008H106.523C106.472 146.555 106.5 146.682 106.659 146.008H134.5Z" fill="#000617"/>
<path d="M123.01 111.318C124.661 107.378 127.439 104.013 130.995 101.647C134.552 99.2806 138.728 98.0182 143 98.0182C147.272 98.0182 151.448 99.2806 155.005 101.647C158.561 104.013 161.339 107.378 162.989 111.318C166.54 112.963 169.549 115.586 171.665 118.878C173.781 122.17 174.916 125.997 174.937 129.91C174.966 140.974 165.984 150.213 154.948 150.498C151.599 150.586 148.28 149.852 145.281 148.36V138.208L157.714 132.02C158.259 131.748 158.673 131.271 158.865 130.693C158.96 130.407 158.998 130.105 158.977 129.804C158.956 129.504 158.875 129.21 158.741 128.941C158.606 128.671 158.419 128.431 158.191 128.233C157.964 128.036 157.699 127.885 157.413 127.79C156.836 127.597 156.205 127.642 155.661 127.914L145.281 133.132V118.561C145.281 117.956 145.041 117.376 144.613 116.948C144.185 116.52 143.605 116.28 143 116.28C142.395 116.28 141.815 116.52 141.387 116.948C140.959 117.376 140.719 117.956 140.719 118.561V126.289L130.339 121.07C129.794 120.798 129.164 120.753 128.587 120.946C128.009 121.138 127.532 121.552 127.259 122.097C126.987 122.641 126.942 123.272 127.135 123.849C127.327 124.427 127.741 124.904 128.286 125.177L140.719 131.364V148.36C137.883 149.767 134.76 150.499 131.594 150.498H131.052C120.016 150.213 111.034 140.974 111.062 129.91C111.084 125.997 112.219 122.17 114.335 118.878C116.451 115.586 119.46 112.963 123.01 111.318Z" fill="#A1A121"/>
<path d="M38.5 131.76C31.3392 88.9666 14.776 17.2333 5.80941 72.6496C-0.925808 114.275 -3.51534 128.629 -4.25511 131.76H-4.46478C-4.54226 132.603 -4.5002 132.798 -4.25511 131.76H38.5Z" fill="#11825A" stroke="#A1A121"/>
<path d="M131.5 180.76C124.339 137.967 107.776 66.2333 98.8094 121.65C92.0742 163.275 89.4847 177.629 88.7449 180.76H88.5352C88.4577 181.603 88.4998 181.798 88.7449 180.76H131.5Z" fill="#11825A" stroke="#A1A121"/>
<path d="M194.6 145.905C194.682 146.073 194.81 146.216 194.969 146.315C195.128 146.415 195.312 146.467 195.5 146.467H206.5V151.467C206.5 151.732 206.605 151.987 206.793 152.174C206.98 152.362 207.235 152.467 207.5 152.467C207.765 152.467 208.02 152.362 208.207 152.174C208.395 151.987 208.5 151.732 208.5 151.467V146.467H219.5C219.687 146.467 219.87 146.414 220.028 146.315C220.186 146.215 220.314 146.074 220.396 145.906C220.478 145.738 220.511 145.551 220.492 145.365C220.473 145.179 220.402 145.002 220.288 144.855L214.55 137.467H217.5C217.687 137.467 217.87 137.414 218.028 137.315C218.186 137.215 218.314 137.074 218.396 136.906C218.478 136.738 218.511 136.551 218.492 136.365C218.473 136.179 218.402 136.002 218.288 135.855L208.288 122.855C208.194 122.735 208.074 122.638 207.938 122.572C207.802 122.506 207.652 122.471 207.5 122.471C207.348 122.471 207.198 122.506 207.062 122.572C206.926 122.638 206.806 122.735 206.713 122.855L196.713 135.855C196.598 136.002 196.527 136.179 196.508 136.365C196.489 136.551 196.522 136.738 196.604 136.906C196.686 137.074 196.814 137.215 196.972 137.315C197.13 137.414 197.313 137.467 197.5 137.467H200.45L194.713 144.855C194.598 145.002 194.526 145.178 194.506 145.364C194.487 145.549 194.519 145.737 194.6 145.905Z" fill="black"/>
<path d="M142.6 130.743C142.682 131.138 142.81 131.472 142.969 131.705C143.128 131.938 143.312 132.061 143.5 132.061H154.5V143.78C154.5 144.401 154.605 144.997 154.793 145.437C154.98 145.876 155.235 146.123 155.5 146.123C155.765 146.123 156.02 145.876 156.207 145.437C156.395 144.997 156.5 144.401 156.5 143.78V132.061H167.5C167.687 132.06 167.87 131.936 168.028 131.703C168.186 131.471 168.314 131.139 168.396 130.746C168.478 130.352 168.511 129.913 168.492 129.477C168.473 129.042 168.402 128.628 168.288 128.282L162.55 110.967H165.5C165.687 110.966 165.87 110.842 166.028 110.61C166.186 110.377 166.314 110.045 166.396 109.652C166.478 109.259 166.511 108.819 166.492 108.384C166.473 107.948 166.402 107.534 166.288 107.188L156.288 76.7191C156.194 76.439 156.074 76.2124 155.938 76.0566C155.802 75.9008 155.652 75.8199 155.5 75.8199C155.348 75.8199 155.198 75.9008 155.062 76.0566C154.926 76.2124 154.806 76.439 154.713 76.7191L144.713 107.188C144.598 107.534 144.527 107.948 144.508 108.384C144.489 108.819 144.522 109.259 144.604 109.652C144.686 110.045 144.814 110.377 144.972 110.61C145.13 110.842 145.313 110.966 145.5 110.967H148.45L142.713 128.282C142.598 128.626 142.526 129.04 142.506 129.474C142.487 129.909 142.519 130.349 142.6 130.743Z" fill="#11825A"/>
<path d="M234.737 127.292C235.461 125.565 236.679 124.09 238.238 123.053C239.797 122.016 241.627 121.462 243.5 121.462C245.373 121.462 247.203 122.016 248.762 123.053C250.321 124.09 251.539 125.565 252.262 127.292C253.819 128.013 255.138 129.163 256.066 130.606C256.993 132.049 257.491 133.727 257.5 135.442C257.512 140.292 253.575 144.342 248.737 144.467C247.27 144.506 245.815 144.184 244.5 143.53V139.08L249.95 136.367C250.189 136.248 250.37 136.039 250.455 135.785C250.496 135.66 250.513 135.528 250.504 135.396C250.494 135.264 250.459 135.135 250.4 135.017C250.341 134.899 250.259 134.794 250.159 134.707C250.059 134.62 249.944 134.554 249.818 134.513C249.565 134.428 249.289 134.448 249.05 134.567L244.5 136.855V130.467C244.5 130.202 244.395 129.948 244.207 129.76C244.02 129.573 243.765 129.467 243.5 129.467C243.235 129.467 242.98 129.573 242.793 129.76C242.605 129.948 242.5 130.202 242.5 130.467V133.855L237.95 131.567C237.711 131.448 237.435 131.428 237.182 131.513C236.929 131.597 236.719 131.778 236.6 132.017C236.481 132.256 236.461 132.532 236.545 132.785C236.63 133.039 236.811 133.248 237.05 133.367L242.5 136.08V143.53C241.257 144.146 239.888 144.467 238.5 144.467H238.262C233.425 144.342 229.487 140.292 229.5 135.442C229.509 133.727 230.007 132.049 230.934 130.606C231.862 129.163 233.181 128.013 234.737 127.292Z" fill="#11825A"/>
<path d="M175 139.496C175.455 139.789 175.924 140.059 176.406 140.305V147.248C176.406 147.621 176.258 147.979 175.994 148.243C175.731 148.506 175.373 148.655 175 148.655C174.627 148.655 174.269 148.506 174.006 148.243C173.742 147.979 173.594 147.621 173.594 147.248V140.305C174.076 140.059 174.545 139.789 175 139.496Z" fill="#C16337"/>
<path d="M162.678 117.471C163.695 115.042 165.407 112.968 167.6 111.509C169.792 110.051 172.367 109.273 175 109.273C177.633 109.273 180.208 110.051 182.4 111.509C184.593 112.968 186.305 115.042 187.322 117.471C189.511 118.485 191.366 120.102 192.67 122.131C193.974 124.161 194.674 126.52 194.687 128.932C194.705 135.752 189.168 141.448 182.365 141.623C180.301 141.677 178.255 141.225 176.406 140.305V134.047L184.07 130.233C184.406 130.065 184.661 129.771 184.78 129.415C184.839 129.238 184.862 129.052 184.849 128.867C184.836 128.682 184.786 128.501 184.703 128.334C184.62 128.168 184.505 128.02 184.365 127.898C184.224 127.776 184.061 127.684 183.885 127.625C183.529 127.506 183.14 127.534 182.805 127.702L176.406 130.918V121.936C176.406 121.563 176.258 121.205 175.994 120.942C175.731 120.678 175.373 120.53 175 120.53C174.627 120.53 174.269 120.678 174.006 120.942C173.742 121.205 173.594 121.563 173.594 121.936V126.7L167.195 123.483C166.86 123.315 166.471 123.287 166.115 123.406C165.759 123.525 165.465 123.78 165.297 124.116C165.129 124.451 165.101 124.84 165.22 125.196C165.339 125.552 165.594 125.846 165.93 126.014L173.594 129.829V140.305C171.845 141.172 169.92 141.624 167.969 141.623H167.635C160.832 141.448 155.295 135.752 155.312 128.932C155.326 126.52 156.025 124.161 157.33 122.131C158.634 120.102 160.489 118.485 162.678 117.471Z" fill="#C16337"/>
<path d="M414.812 187.967C408.412 211.167 412.145 260.301 414.812 281.967C407.312 286.634 393.212 294.367 396.812 287.967C401.312 279.967 403.312 247.967 401.312 223.467C399.712 203.867 385.978 191.634 379.312 187.967V180.467C386.812 187.301 400.812 198.967 396.812 190.967C392.812 182.967 371.812 153.301 361.812 139.467C367.145 136.634 380.212 135.967 389.812 155.967C401.812 180.967 404.312 175.467 409.312 151.967C414.312 128.467 422.812 158.967 414.812 187.967Z" fill="#C16337"/>
</g>
<g filter="url(#filter0_d_4_232)">
<circle cx="330" cy="72" r="62" fill="white"/>
</g>
<defs>
<filter id="filter0_d_4_232" x="258" y="0" width="144" height="144" filterUnits="userSpaceOnUse" color-interpolation-filters="sRGB">
<feFlood flood-opacity="0" result="BackgroundImageFix"/>
<feColorMatrix in="SourceAlpha" type="matrix" values="0 0 0 0 0 0 0 0 0 0 0 0 0 0 0 0 0 0 127 0" result="hardAlpha"/>
<feOffset/>
<feGaussianBlur stdDeviation="5"/>
<feComposite in2="hardAlpha" operator="out"/>
<feColorMatrix type="matrix" values="0 0 0 0 1 0 0 0 0 1 0 0 0 0 1 0 0 0 1 0"/>
<feBlend mode="normal" in2="BackgroundImageFix" result="effect1_dropShadow_4_232"/>
<feBlend mode="normal" in="SourceGraphic" in2="effect1_dropShadow_4_232" result="shape"/>
</filter>
</defs>
</svg>
