<svg width="20" height="20" viewBox="0 0 20 20" fill="none" xmlns="http://www.w3.org/2000/svg">
<path fill-rule="evenodd" clip-rule="evenodd" d="M19.2828 10.0001C19.2828 4.87301 14.9657 0.71579 9.64141 0.71579C4.31712 0.71579 0 4.87301 0 10.0001C0 14.634 3.52514 18.475 8.13494 19.1721V12.6847H5.68628V10.0001H8.13494V7.95466C8.13494 5.62819 9.5747 4.34206 11.7767 4.34206C12.8317 4.34206 13.9353 4.52361 13.9353 4.52361V6.80863H12.7189C11.5219 6.80863 11.1475 7.52402 11.1475 8.2593V10.0001H13.8212L13.3942 12.6847H11.1479V19.1729C15.7577 18.4762 19.2828 14.6352 19.2828 10.0001V10.0001Z" fill="#274C5B"/>
</svg>
