<svg width="20" height="20" viewBox="0 0 20 20" fill="none" xmlns="http://www.w3.org/2000/svg">
<path d="M13.6585 2.26304C14.7231 2.2661 15.7431 2.67468 16.4958 3.39955C17.2486 4.12442 17.6729 5.10667 17.6761 6.13178V13.8684C17.6729 14.8936 17.2486 15.8758 16.4958 16.6007C15.7431 17.3255 14.7231 17.7341 13.6585 17.7372H5.6243C4.55976 17.7341 3.53973 17.3255 2.78698 16.6007C2.03423 15.8758 1.60994 14.8936 1.60676 13.8684V6.13178C1.60994 5.10667 2.03423 4.12442 2.78698 3.39955C3.53973 2.67468 4.55976 2.2661 5.6243 2.26304H13.6585V2.26304ZM13.6585 0.71579H5.6243C2.53087 0.71579 0 3.15292 0 6.13178V13.8684C0 16.8473 2.53087 19.2844 5.6243 19.2844H13.6585C16.752 19.2844 19.2828 16.8473 19.2828 13.8684V6.13178C19.2828 3.15292 16.752 0.71579 13.6585 0.71579V0.71579Z" fill="#274C5B"/>
<path d="M14.8638 6.13257C14.6254 6.13257 14.3924 6.06451 14.1942 5.93699C13.996 5.80947 13.8416 5.62821 13.7504 5.41615C13.6591 5.20409 13.6353 4.97075 13.6818 4.74562C13.7283 4.5205 13.8431 4.31371 14.0116 4.15141C14.1802 3.9891 14.3949 3.87857 14.6287 3.83379C14.8625 3.78901 15.1048 3.812 15.325 3.89983C15.5452 3.98767 15.7334 4.13642 15.8659 4.32727C15.9983 4.51812 16.069 4.7425 16.069 4.97203C16.0693 5.12453 16.0384 5.27559 15.9779 5.41654C15.9175 5.55749 15.8287 5.68556 15.7167 5.79339C15.6048 5.90122 15.4718 5.98669 15.3254 6.0449C15.179 6.10311 15.0222 6.1329 14.8638 6.13257V6.13257ZM9.64151 6.90599C10.2772 6.90599 10.8986 7.08751 11.4271 7.42758C11.9556 7.76765 12.3676 8.25101 12.6108 8.81653C12.8541 9.38205 12.9177 10.0043 12.7937 10.6047C12.6697 11.205 12.3636 11.7565 11.9141 12.1893C11.4646 12.6222 10.892 12.9169 10.2685 13.0363C9.64507 13.1558 8.99886 13.0945 8.41158 12.8602C7.82431 12.626 7.32236 12.2293 6.96921 11.7203C6.61606 11.2114 6.42756 10.613 6.42756 10.0009C6.42847 9.18035 6.76738 8.39366 7.36991 7.81344C7.97245 7.23322 8.7894 6.90687 9.64151 6.90599V6.90599ZM9.64151 5.35874C8.68806 5.35874 7.75603 5.631 6.96327 6.14109C6.17051 6.65118 5.55263 7.37618 5.18776 8.22443C4.82289 9.07267 4.72742 10.0061 4.91343 10.9065C5.09944 11.807 5.55857 12.6342 6.23275 13.2834C6.90694 13.9326 7.76591 14.3748 8.70104 14.5539C9.63616 14.733 10.6054 14.6411 11.4863 14.2897C12.3672 13.9383 13.1201 13.3434 13.6498 12.58C14.1795 11.8166 14.4622 10.919 14.4622 10.0009C14.4622 8.76973 13.9543 7.58898 13.0503 6.7184C12.1462 5.84783 10.92 5.35874 9.64151 5.35874V5.35874Z" fill="#274C5B"/>
</svg>
