<svg width="402" height="144" viewBox="0 0 402 144" fill="none" xmlns="http://www.w3.org/2000/svg">
<rect x="2" y="2" width="400" height="140" rx="70" fill="#E0F6FF"/>
<circle cx="267.793" cy="32.0937" r="14" transform="rotate(71.0174 267.793 32.0937)" fill="#FFE146"/>
<mask id="mask0_4_234" style="mask-type:alpha" maskUnits="userSpaceOnUse" x="2" y="2" width="400" height="140">
<rect x="2" y="2" width="400" height="140" rx="70" fill="#002738"/>
</mask>
<g mask="url(#mask0_4_234)">
<path d="M5.28571 191.967C11.6857 215.167 7.95238 264.301 5.28571 285.967C12.7857 290.634 26.8856 298.367 23.2856 291.967C18.7856 283.967 16.7856 251.967 18.7856 227.467C20.3856 207.867 34.119 195.634 40.7856 191.967V184.467C33.2856 191.301 19.2856 202.967 23.2856 194.967C27.2856 186.967 48.2856 157.301 58.2856 143.467C52.9523 140.634 39.8856 139.967 30.2856 159.967C18.2856 184.967 15.7857 179.467 10.7857 155.967C5.78571 132.467 -2.71429 162.967 5.28571 191.967Z" fill="black"/>
<path d="M48.5105 160.165C50.1607 154.39 52.9386 149.458 56.4951 145.99C60.0516 142.521 64.2281 140.671 68.4999 140.671C72.7717 140.671 76.9482 142.521 80.5047 145.99C84.0613 149.458 86.8391 154.39 88.4894 160.165C92.0402 162.577 95.0493 166.42 97.1651 171.246C99.2808 176.072 100.416 181.68 100.437 187.416C100.466 203.634 91.4835 217.176 80.448 217.594C77.0994 217.722 73.7804 216.646 70.7812 214.459V199.579L83.214 190.509C83.7585 190.11 84.1726 189.411 84.3651 188.564C84.4604 188.145 84.4985 187.702 84.4771 187.262C84.4558 186.821 84.3754 186.391 84.2406 185.995C84.1057 185.6 83.9192 185.248 83.6914 184.958C83.4637 184.669 83.1993 184.448 82.9133 184.308C82.3358 184.026 81.7054 184.092 81.1609 184.491L70.7812 192.14V170.781C70.7812 169.894 70.5408 169.044 70.113 168.417C69.6852 167.79 69.105 167.438 68.4999 167.438C67.8949 167.438 67.3147 167.79 66.8868 168.417C66.459 169.044 66.2187 169.894 66.2187 170.781V182.108L55.839 174.459C55.2945 174.06 54.6641 173.995 54.0865 174.277C53.509 174.559 53.0316 175.166 52.7593 175.964C52.487 176.762 52.4422 177.686 52.6348 178.533C52.8273 179.379 53.2413 180.079 53.7859 180.478L66.2187 189.548V214.459C63.3826 216.521 60.2596 217.594 57.0937 217.594H56.5519C45.5163 217.176 36.5339 203.634 36.5624 187.416C36.584 181.68 37.719 176.072 39.8348 171.246C41.9505 166.42 44.9597 162.577 48.5105 160.165Z" fill="#A1A121"/>
<path d="M41 221.293C33.8392 178.499 17.276 106.766 8.30941 162.182C1.57419 203.808 -1.01534 218.162 -1.75511 221.293H-1.96478C-2.04226 222.136 -2.0002 222.33 -1.75511 221.293H41Z" fill="#11825A" stroke="#A1A121"/>
<path d="M146 244.293C138.839 201.499 122.276 129.766 113.309 185.182C106.574 226.808 103.985 241.162 103.245 244.293H103.035C102.958 245.136 103 245.33 103.245 244.293H146Z" fill="#11825A" stroke="#A1A121"/>
<path d="M311.312 85.9672C346.512 68.3672 409.978 85.9672 437.312 96.9672V155.467C337.812 153.8 141.112 148.567 150.312 140.967C161.812 131.467 195.812 121.967 207.812 119.967C217.412 118.367 239.478 126.3 249.312 130.467C255.312 122.967 276.112 103.567 311.312 85.9672Z" fill="#14B254"/>
<path d="M396.812 67.9672C390.412 91.1672 394.145 140.301 396.812 161.967C389.312 166.634 375.212 174.367 378.812 167.967C383.312 159.967 385.312 127.967 383.312 103.467C381.712 83.8672 367.978 71.6339 361.312 67.9672V60.4672C368.812 67.3005 382.812 78.9672 378.812 70.9672C374.812 62.9672 353.812 33.3005 343.812 19.4672C349.145 16.6339 362.212 15.9672 371.812 35.9672C383.812 60.9672 386.312 55.4672 391.312 31.9672C396.312 8.46718 404.812 38.9672 396.812 67.9672Z" fill="#C16337"/>
<path d="M205.312 96.9672L199.312 143.967H212.812L205.312 96.9672Z" fill="white"/>
<path d="M339.367 58.4672L327.812 149.467H353.812L339.367 58.4672Z" fill="white"/>
<path d="M340.812 141.76C347.973 98.9666 364.536 27.2333 373.502 82.6496C380.238 124.275 382.827 138.629 383.567 141.76H383.777C383.854 142.603 383.812 142.798 383.567 141.76H340.812Z" fill="#1B8F10" stroke="#C7CB10"/>
<path d="M381.301 97.6321C379.651 91.8568 376.873 86.9251 373.317 83.4567C369.76 79.9883 365.584 78.1379 361.312 78.1379C357.04 78.1379 352.864 79.9883 349.307 83.4567C345.751 86.9251 342.973 91.8568 341.322 97.6321C337.772 100.044 334.762 103.887 332.647 108.713C330.531 113.539 329.396 119.147 329.374 124.884C329.346 141.101 338.328 154.643 349.364 155.061C352.712 155.189 356.031 154.113 359.031 151.926V137.047L346.598 127.977C346.053 127.578 345.639 126.878 345.447 126.031C345.351 125.612 345.313 125.169 345.335 124.729C345.356 124.288 345.436 123.858 345.571 123.463C345.706 123.067 345.893 122.715 346.12 122.425C346.348 122.136 346.612 121.915 346.898 121.775C347.476 121.493 348.106 121.559 348.651 121.958L359.031 129.607V108.248C359.031 107.362 359.271 106.511 359.699 105.884C360.127 105.257 360.707 104.905 361.312 104.905C361.917 104.905 362.497 105.257 362.925 105.884C363.353 106.511 363.593 107.362 363.593 108.248V119.575L373.973 111.927C374.517 111.528 375.148 111.462 375.725 111.744C376.303 112.026 376.78 112.633 377.052 113.431C377.325 114.229 377.37 115.153 377.177 116C376.984 116.847 376.57 117.546 376.026 117.945L363.593 127.015V151.926C366.429 153.988 369.552 155.061 372.718 155.061H373.26C384.295 154.643 393.278 141.101 393.249 124.884C393.228 119.147 392.093 113.539 389.977 108.713C387.861 103.887 384.852 100.044 381.301 97.6321Z" fill="#C7CB10"/>
<path d="M294.812 158.008C299.475 130.192 310.26 83.5651 316.099 119.586C320.484 146.643 322.171 155.973 322.652 158.008H322.789C322.839 158.555 322.812 158.682 322.652 158.008H294.812Z" fill="#CAE299"/>
<path d="M306.301 123.318C304.651 119.378 301.873 116.013 298.317 113.647C294.76 111.281 290.584 110.018 286.312 110.018C282.04 110.018 277.864 111.281 274.307 113.647C270.751 116.013 267.973 119.378 266.322 123.318C262.772 124.963 259.762 127.586 257.647 130.878C255.531 134.17 254.396 137.997 254.374 141.91C254.346 152.974 263.328 162.213 274.364 162.498C277.712 162.586 281.031 161.852 284.031 160.36V150.208L271.598 144.02C271.053 143.748 270.639 143.271 270.447 142.693C270.351 142.407 270.313 142.105 270.335 141.804C270.356 141.504 270.436 141.21 270.571 140.941C270.706 140.671 270.893 140.431 271.12 140.233C271.348 140.036 271.612 139.885 271.898 139.79C272.476 139.597 273.106 139.642 273.651 139.914L284.031 145.132V130.561C284.031 129.956 284.271 129.376 284.699 128.948C285.127 128.52 285.707 128.28 286.312 128.28C286.917 128.28 287.497 128.52 287.925 128.948C288.353 129.376 288.593 129.956 288.593 130.561V138.289L298.973 133.07C299.517 132.798 300.148 132.753 300.725 132.946C301.303 133.138 301.78 133.552 302.052 134.097C302.325 134.641 302.37 135.272 302.177 135.849C301.984 136.427 301.57 136.904 301.026 137.177L288.593 143.364V160.36C291.429 161.767 294.552 162.499 297.718 162.498H298.26C309.295 162.213 318.278 152.974 318.249 141.91C318.228 137.997 317.093 134.17 314.977 130.878C312.861 127.586 309.852 124.963 306.301 123.318Z" fill="#C7CB10"/>
<path d="M297.812 182.76C304.973 139.967 321.536 68.2333 330.502 123.65C337.238 165.275 339.827 179.629 340.567 182.76H340.777C340.854 183.603 340.812 183.798 340.567 182.76H297.812Z" fill="#1B8F10" stroke="#C7CB10"/>
<path d="M234.712 138.905C234.63 139.073 234.502 139.216 234.343 139.315C234.183 139.415 233.999 139.467 233.812 139.467H222.812V144.467C222.812 144.732 222.706 144.987 222.519 145.174C222.331 145.362 222.077 145.467 221.812 145.467C221.547 145.467 221.292 145.362 221.105 145.174C220.917 144.987 220.812 144.732 220.812 144.467V139.467H209.812C209.625 139.467 209.442 139.414 209.284 139.315C209.125 139.215 208.998 139.074 208.916 138.906C208.834 138.738 208.801 138.551 208.82 138.365C208.839 138.179 208.91 138.002 209.024 137.855L214.762 130.467H211.812C211.625 130.467 211.442 130.414 211.284 130.315C211.125 130.215 210.998 130.074 210.916 129.906C210.834 129.738 210.801 129.551 210.82 129.365C210.839 129.179 210.91 129.002 211.024 128.855L221.024 115.855C221.118 115.735 221.237 115.638 221.374 115.572C221.51 115.506 221.66 115.471 221.812 115.471C221.964 115.471 222.113 115.506 222.25 115.572C222.386 115.638 222.506 115.735 222.599 115.855L232.599 128.855C232.714 129.002 232.784 129.179 232.804 129.365C232.823 129.551 232.789 129.738 232.707 129.906C232.625 130.074 232.498 130.215 232.34 130.315C232.181 130.414 231.999 130.467 231.812 130.467H228.862L234.599 137.855C234.714 138.002 234.785 138.178 234.805 138.364C234.825 138.549 234.793 138.737 234.712 138.905Z" fill="#C16337"/>
<path d="M286.712 136.743C286.63 137.138 286.502 137.472 286.343 137.705C286.183 137.938 285.999 138.061 285.812 138.061H274.812V149.78C274.812 150.401 274.706 150.997 274.519 151.437C274.331 151.876 274.077 152.123 273.812 152.123C273.547 152.123 273.292 151.876 273.105 151.437C272.917 150.997 272.812 150.401 272.812 149.78V138.061H261.812C261.625 138.06 261.442 137.936 261.284 137.703C261.125 137.471 260.998 137.139 260.916 136.746C260.834 136.352 260.801 135.913 260.82 135.477C260.839 135.042 260.91 134.628 261.024 134.282L266.762 116.967H263.812C263.625 116.966 263.442 116.842 263.284 116.61C263.125 116.377 262.998 116.045 262.916 115.652C262.834 115.259 262.801 114.819 262.82 114.384C262.839 113.948 262.91 113.534 263.024 113.188L273.024 82.7191C273.118 82.439 273.237 82.2124 273.374 82.0566C273.51 81.9008 273.66 81.8199 273.812 81.8199C273.964 81.8199 274.113 81.9008 274.25 82.0566C274.386 82.2124 274.506 82.439 274.599 82.7191L284.599 113.188C284.714 113.534 284.784 113.948 284.804 114.384C284.823 114.819 284.789 115.259 284.707 115.652C284.625 116.045 284.498 116.377 284.34 116.61C284.181 116.842 283.999 116.966 283.812 116.967H280.862L286.599 134.282C286.714 134.626 286.785 135.04 286.805 135.474C286.825 135.909 286.793 136.349 286.712 136.743Z" fill="#1B8F10"/>
<path d="M185.812 136.955C185.488 137.163 185.155 137.355 184.812 137.53V142.467C184.812 142.732 184.917 142.987 185.105 143.174C185.292 143.362 185.547 143.467 185.812 143.467C186.077 143.467 186.331 143.362 186.519 143.174C186.706 142.987 186.812 142.732 186.812 142.467V137.53C186.469 137.355 186.135 137.163 185.812 136.955Z" fill="#1B8F10"/>
<path d="M194.574 121.292C193.851 119.565 192.633 118.09 191.074 117.053C189.515 116.016 187.684 115.462 185.812 115.462C183.939 115.462 182.108 116.016 180.549 117.053C178.99 118.09 177.773 119.565 177.049 121.292C175.493 122.013 174.174 123.163 173.246 124.606C172.319 126.049 171.821 127.727 171.812 129.442C171.799 134.292 175.737 138.342 180.574 138.467C182.042 138.506 183.497 138.184 184.812 137.53V133.08L179.362 130.367C179.123 130.248 178.942 130.039 178.857 129.785C178.815 129.66 178.799 129.528 178.808 129.396C178.817 129.264 178.853 129.135 178.912 129.017C178.971 128.899 179.053 128.794 179.153 128.707C179.252 128.62 179.368 128.554 179.494 128.513C179.747 128.428 180.023 128.448 180.262 128.567L184.812 130.855V124.467C184.812 124.202 184.917 123.948 185.105 123.76C185.292 123.573 185.547 123.467 185.812 123.467C186.077 123.467 186.331 123.573 186.519 123.76C186.706 123.948 186.812 124.202 186.812 124.467V127.855L191.362 125.567C191.6 125.448 191.877 125.428 192.13 125.513C192.383 125.597 192.592 125.778 192.712 126.017C192.831 126.256 192.851 126.532 192.766 126.785C192.682 127.039 192.5 127.248 192.262 127.367L186.812 130.08V137.53C188.055 138.146 189.424 138.467 190.812 138.467H191.049C195.887 138.342 199.824 134.292 199.812 129.442C199.802 127.727 199.305 126.049 198.377 124.606C197.45 123.163 196.131 122.013 194.574 121.292Z" fill="#1B8F10"/>
<path d="M254.312 137.496C253.857 137.789 253.388 138.059 252.906 138.305V145.248C252.906 145.621 253.054 145.979 253.317 146.243C253.581 146.506 253.939 146.655 254.312 146.655C254.685 146.655 255.042 146.506 255.306 146.243C255.57 145.979 255.718 145.621 255.718 145.248V138.305C255.236 138.059 254.767 137.789 254.312 137.496Z" fill="white"/>
<path d="M266.634 115.471C265.617 113.042 263.904 110.968 261.712 109.509C259.52 108.051 256.945 107.273 254.312 107.273C251.679 107.273 249.104 108.051 246.912 109.509C244.719 110.968 243.007 113.042 241.99 115.471C239.801 116.485 237.946 118.102 236.642 120.131C235.337 122.161 234.638 124.52 234.624 126.932C234.607 133.752 240.144 139.448 246.947 139.623C249.011 139.677 251.057 139.225 252.906 138.305V132.047L245.241 128.233C244.906 128.065 244.651 127.771 244.532 127.415C244.473 127.238 244.45 127.052 244.463 126.867C244.476 126.682 244.526 126.501 244.609 126.334C244.692 126.168 244.807 126.02 244.947 125.898C245.088 125.776 245.251 125.684 245.427 125.625C245.783 125.506 246.171 125.534 246.507 125.702L252.906 128.918V119.936C252.906 119.563 253.054 119.205 253.317 118.942C253.581 118.678 253.939 118.53 254.312 118.53C254.685 118.53 255.042 118.678 255.306 118.942C255.57 119.205 255.718 119.563 255.718 119.936V124.7L262.116 121.483C262.452 121.315 262.841 121.287 263.197 121.406C263.553 121.525 263.847 121.78 264.015 122.116C264.183 122.451 264.21 122.84 264.092 123.196C263.973 123.552 263.718 123.846 263.382 124.014L255.718 127.829V138.305C257.466 139.172 259.391 139.624 261.343 139.623H261.677C268.48 139.448 274.017 133.752 273.999 126.932C273.986 124.52 273.286 122.161 271.982 120.131C270.678 118.102 268.823 116.485 266.634 115.471Z" fill="white"/>
<path d="M153.013 14C150.967 14 148.963 14.5695 147.223 15.6447C145.483 16.7198 144.077 18.2583 143.163 20.0875C142.399 21.5992 142.001 23.2689 142 24.9625C142.004 25.22 141.912 25.4697 141.74 25.662C141.569 25.8542 141.331 25.9749 141.075 26C140.938 26.0103 140.799 25.9921 140.669 25.9465C140.539 25.9009 140.42 25.8289 140.319 25.735C140.218 25.6411 140.137 25.5273 140.083 25.4008C140.028 25.2743 140 25.1379 140 25C140.001 23.6026 140.224 22.2143 140.662 20.8875C140.692 20.8029 140.698 20.712 140.68 20.6243C140.662 20.5366 140.621 20.4552 140.561 20.3888C140.501 20.3224 140.424 20.2733 140.339 20.2467C140.253 20.2201 140.162 20.2169 140.075 20.2375C138.341 20.6674 136.801 21.6652 135.7 23.072C134.599 24.4788 134.001 26.2136 134 28C134 32.4 137.725 36 142.113 36H153C155.917 36.0017 158.716 34.8443 160.78 32.7826C162.844 30.7209 164.005 27.9236 164.006 25.0063C164.008 22.0889 162.851 19.2903 160.789 17.2262C158.727 15.1622 155.93 14.0017 153.013 14Z" fill="white"/>
<path d="M310.013 19C307.967 19 305.963 19.5695 304.223 20.6447C302.483 21.7198 301.077 23.2583 300.163 25.0875C299.399 26.5992 299.001 28.2689 299 29.9625C299.004 30.22 298.912 30.4697 298.74 30.662C298.569 30.8542 298.331 30.9749 298.075 31C297.938 31.0103 297.799 30.9921 297.669 30.9465C297.539 30.9009 297.42 30.8289 297.319 30.735C297.218 30.6411 297.137 30.5273 297.083 30.4008C297.028 30.2743 297 30.1379 297 30C297.001 28.6026 297.224 27.2143 297.662 25.8875C297.692 25.8029 297.698 25.712 297.68 25.6243C297.662 25.5366 297.621 25.4552 297.561 25.3888C297.501 25.3224 297.424 25.2733 297.339 25.2467C297.253 25.2201 297.162 25.2169 297.075 25.2375C295.341 25.6674 293.801 26.6652 292.7 28.072C291.599 29.4788 291.001 31.2136 291 33C291 37.4 294.725 41 299.113 41H310C312.917 41.0017 315.716 39.8443 317.78 37.7826C319.844 35.7209 321.005 32.9236 321.006 30.0063C321.008 27.0889 319.851 24.2903 317.789 22.2262C315.727 20.1622 312.93 19.0017 310.013 19Z" fill="white"/>
<path d="M195.013 35C192.967 35 190.963 35.5695 189.223 36.6447C187.483 37.7198 186.077 39.2583 185.163 41.0875C184.399 42.5992 184.001 44.2689 184 45.9625C184.004 46.22 183.912 46.4697 183.74 46.662C183.569 46.8542 183.331 46.9749 183.075 47C182.938 47.0103 182.799 46.9921 182.669 46.9465C182.539 46.9009 182.42 46.8289 182.319 46.735C182.218 46.6411 182.137 46.5273 182.083 46.4008C182.028 46.2743 182 46.1379 182 46C182.001 44.6026 182.224 43.2143 182.662 41.8875C182.692 41.8029 182.698 41.712 182.68 41.6243C182.662 41.5366 182.621 41.4552 182.561 41.3888C182.501 41.3224 182.424 41.2733 182.339 41.2467C182.253 41.2201 182.162 41.2169 182.075 41.2375C180.341 41.6674 178.801 42.6652 177.7 44.072C176.599 45.4788 176.001 47.2136 176 49C176 53.4 179.725 57 184.113 57H195C197.917 57.0017 200.716 55.8443 202.78 53.7826C204.844 51.7209 206.005 48.9236 206.006 46.0063C206.008 43.0889 204.851 40.2903 202.789 38.2262C200.727 36.1622 197.93 35.0017 195.013 35Z" fill="white"/>
</g>
<g filter="url(#filter0_d_4_234)">
<circle cx="72" cy="72" r="62" fill="#FFE146"/>
</g>
<defs>
<filter id="filter0_d_4_234" x="0" y="0" width="144" height="144" filterUnits="userSpaceOnUse" color-interpolation-filters="sRGB">
<feFlood flood-opacity="0" result="BackgroundImageFix"/>
<feColorMatrix in="SourceAlpha" type="matrix" values="0 0 0 0 0 0 0 0 0 0 0 0 0 0 0 0 0 0 127 0" result="hardAlpha"/>
<feOffset/>
<feGaussianBlur stdDeviation="5"/>
<feComposite in2="hardAlpha" operator="out"/>
<feColorMatrix type="matrix" values="0 0 0 0 1 0 0 0 0 0.884 0 0 0 0 0.275 0 0 0 1 0"/>
<feBlend mode="normal" in2="BackgroundImageFix" result="effect1_dropShadow_4_234"/>
<feBlend mode="normal" in="SourceGraphic" in2="effect1_dropShadow_4_234" result="shape"/>
</filter>
</defs>
</svg>
