<svg width="39" height="56" viewBox="0 0 39 56" fill="none" xmlns="http://www.w3.org/2000/svg">
<path d="M1.95508 41.9258H19.3954H36.8357" stroke="#7EB693" stroke-width="2" stroke-miterlimit="10"/>
<path d="M5.89551 48.3574L19.3955 48.3574L32.8955 48.3574" stroke="#7EB693" stroke-width="2" stroke-miterlimit="10"/>
<path d="M18.8955 1.35742L18.8955 8.35742L18.8955 15.3574" stroke="#7EB693" stroke-width="2" stroke-miterlimit="10"/>
<path d="M18.9702 14.6426V41.0742" stroke="#7EB693" stroke-width="2" stroke-miterlimit="10"/>
<path d="M30.0299 4.41016L18.9702 15.4944" stroke="#7EB693" stroke-width="2" stroke-miterlimit="10"/>
<path d="M34.2836 8.67383L18.9702 24.0212" stroke="#7EB693" stroke-width="2" stroke-miterlimit="10"/>
<path d="M36.8359 15.4941L18.9702 32.5468" stroke="#7EB693" stroke-width="2" stroke-miterlimit="10"/>
<path d="M37.6866 23.168L18.9702 41.9259" stroke="#7EB693" stroke-width="2" stroke-miterlimit="10"/>
<path d="M37.6865 31.6953L27.4775 41.9269" stroke="#7EB693" stroke-width="2" stroke-miterlimit="10"/>
<path d="M1.10449 31.6953L11.3134 41.9269" stroke="#7EB693" stroke-width="2" stroke-miterlimit="10"/>
<path d="M8.76123 4.41016L18.9702 15.4944" stroke="#7EB693" stroke-width="2" stroke-miterlimit="10"/>
<path d="M4.50732 8.67383L18.97 24.0212" stroke="#7EB693" stroke-width="2" stroke-miterlimit="10"/>
<path d="M1.95508 14.6426L18.97 32.5478" stroke="#7EB693" stroke-width="2" stroke-miterlimit="10"/>
<path d="M1.10449 22.3164L18.9702 41.0743" stroke="#7EB693" stroke-width="2" stroke-miterlimit="10"/>
<path d="M19.3955 54.7158C9.29468 54.7158 1.10449 46.2635 1.10449 35.8351V19.8806C1.10449 9.45419 9.29468 1 19.3955 1C29.4982 1 37.6866 9.45419 37.6866 19.8806V35.8351C37.6884 46.2635 29.4982 54.7158 19.3955 54.7158Z" stroke="#7EB693" stroke-width="2" stroke-miterlimit="10"/>
</svg>
