<svg width="21" height="18" viewBox="0 0 21 18" fill="none" xmlns="http://www.w3.org/2000/svg">
<path d="M20.6602 2.67421C19.8852 3.01095 19.0652 3.2328 18.2261 3.33275C19.1079 2.81641 19.7711 1.99611 20.0912 1.0257C19.2575 1.51319 18.3469 1.85524 17.3984 2.03719C16.9991 1.61862 16.5187 1.28563 15.9866 1.05847C15.4546 0.831316 14.8818 0.714728 14.3033 0.715797C11.9609 0.715797 10.0654 2.58382 10.0654 4.88657C10.0637 5.20687 10.1004 5.52622 10.1747 5.8378C8.49507 5.75906 6.85036 5.33058 5.34581 4.57979C3.84126 3.82899 2.50999 2.77241 1.43717 1.47764C1.0608 2.11213 0.861758 2.83607 0.86084 3.57379C0.86084 5.02 1.61537 6.29835 2.75469 7.04728C2.07967 7.03126 1.41849 6.8526 0.827268 6.52647V6.57812C0.827268 8.60109 2.2907 10.284 4.22759 10.6671C3.86336 10.7642 3.48803 10.8134 3.11108 10.8135C2.84361 10.8139 2.57674 10.788 2.31437 10.736C2.85283 12.3931 4.41999 13.5983 6.27639 13.6327C4.76793 14.7952 2.91593 15.4236 1.01149 15.419C0.673443 15.4184 0.335713 15.3983 0 15.3587C1.9374 16.5958 4.18947 17.2502 6.48815 17.2439C14.2943 17.2439 18.5589 10.8866 18.5589 5.37294C18.5589 5.19217 18.5541 5.01139 18.5455 4.83492C19.3733 4.24613 20.0893 3.51444 20.6602 2.67421V2.67421Z" fill="#274C5B"/>
</svg>
